<?xml version="1.0" encoding="UTF-8"?>
<svg width="1280px" height="720px" viewBox="0 0 1280 720" version="1.1" xmlns="http://www.w3.org/2000/svg" xmlns:xlink="http://www.w3.org/1999/xlink">
    <!-- Generator: Sketch 45.1 (43504) - http://www.bohemiancoding.com/sketch -->
    <title>color-mapping-2</title>
    <desc>Created with Sketch.</desc>
    <defs></defs>
    <g id="Page-1" stroke="none" stroke-width="1" fill="none" fill-rule="evenodd">
        <g id="color-mapping-2">
            <path d="M389,360 C405.14744,376.14744 421.2812,392.28104 437.72536,405.76816 C451.03528,416.6848 464.43888,425.7776 478.21328,431.83872 C490.29776,437.15624 502.34888,440 514.66368,440 C526.9796,440 539.03168,437.15576 551.11712,431.83744 C564.88944,425.77672 578.29112,416.68536 591.59912,405.77064 C608.04424,392.28296 624.17904,376.1484 640.32744,360 C656.47576,343.8516 672.61048,327.71712 689.0556,314.22944 C702.36368,303.31472 715.76544,294.22328 729.53776,288.16256 C741.6232,282.84424 753.67528,280 765.99112,280 C778.30696,280 790.35904,282.84424 802.4444,288.16256 C816.21672,294.2232 829.6184,303.31464 842.9264,314.22928 C859.3716,327.71704 875.5064,343.8516 891.6548,360" id="sine-curve" stroke="#FF0000" stroke-width="3.2"></path>
            <path d="M389,360 C405.14744,376.14744 421.2812,392.28104 437.72536,405.76816 C451.03528,416.6848 464.43888,425.7776 478.21328,431.83872 C490.29776,437.15624 502.34888,440 514.66368,440 C526.9796,440 539.03168,437.15576 551.11712,431.83744 C564.88944,425.77672 578.29112,416.68536 591.59912,405.77064 C608.04424,392.28296 624.17904,376.1484 640.32744,360 C656.47576,343.8516 672.61048,327.71712 689.0556,314.22944 C702.36368,303.31472 715.76544,294.22328 729.53776,288.16256 C741.6232,282.84424 753.67528,280 765.99112,280 C778.30696,280 790.35904,282.84424 802.4444,288.16256 C816.21672,294.2232 829.6184,303.31464 842.9264,314.22928 C859.3716,327.71704 875.5064,343.8516 891.6548,360" id="sine-curve" stroke="#00FF16" stroke-width="3.2" transform="translate(640.327400, 360.000000) scale(1, -1) translate(-640.327400, -360.000000) "></path>
            <path d="M389,440 C401.31584,440 413.36792,437.15576 425.45336,431.83744 C439.22568,425.77672 452.62736,416.68536 465.93544,405.77056 C482.38056,392.28288 498.51536,376.1484 514.66368,360 C530.81216,343.8516 546.94696,327.71696 563.39208,314.22928 C576.70016,303.31456 590.10184,294.2232 603.87416,288.16256 C615.95952,282.84424 628.0116,280 640.32744,280 C652.64144,280 664.69176,282.84336 676.77536,288.16024 C690.55112,294.22152 703.956,303.31528 717.2672,314.23304 C733.71088,327.71992 749.84416,343.85304 765.99112,360 C782.13944,376.14832 798.27416,392.2828 814.71928,405.77048 C828.02736,416.68528 841.42912,425.77672 855.20152,431.83744 C867.28696,437.15576 879.33896,440 891.6548,440" id="cosine-curve" stroke="#4000FF" stroke-width="3.2"></path>
            <rect id="Rectangle-3" stroke="#EAEAEA" stroke-width="4" x="451" y="266" width="378" height="92.4739275"></rect>
        </g>
    </g>
</svg>