<?xml version="1.0" encoding="UTF-8"?>
<svg width="1280px" height="720px" viewBox="0 0 1280 720" version="1.1" xmlns="http://www.w3.org/2000/svg" xmlns:xlink="http://www.w3.org/1999/xlink">
    <!-- Generator: Sketch 46.2 (44496) - http://www.bohemiancoding.com/sketch -->
    <title>data-overview</title>
    <desc>Created with Sketch.</desc>
    <defs></defs>
    <g id="Page-1" stroke="none" stroke-width="1" fill="none" fill-rule="evenodd">
        <g id="data-overview">
            <g id="fragment-1" transform="translate(132.000000, 92.000000)">
                <rect id="Rectangle-5" stroke="#EAEAEA" stroke-width="4" x="0" y="134" width="268" height="268"></rect>
                <g id="Group" transform="translate(0.000000, 134.000000)" stroke="#EAEAEA" opacity="0.495810688">
                    <path d="M268.5,0.5 L268.5,268.516791" id="Line"></path>
                    <path d="M238.5,0.5 L238.5,268.516791" id="Line"></path>
                    <path d="M208.5,0.5 L208.5,268.516791" id="Line"></path>
                    <path d="M178.5,0.5 L178.5,268.516791" id="Line"></path>
                    <path d="M148.5,0.5 L148.5,268.516791" id="Line"></path>
                    <path d="M119.5,0.5 L119.5,268.516791" id="Line"></path>
                    <path d="M89.5,0.5 L89.5,268.516791" id="Line"></path>
                    <path d="M59.5,0.5 L59.5,268.516791" id="Line"></path>
                    <path d="M29.5,0.5 L29.5,268.516791" id="Line"></path>
                    <path d="M0.5,0.5 L0.5,268.516791" id="Line"></path>
                </g>
                <g id="Group" transform="translate(134.500000, 268.500000) rotate(90.000000) translate(-134.500000, -268.500000) translate(0.000000, 134.000000)" stroke="#EAEAEA" opacity="0.495810688">
                    <path d="M268.5,0.5 L268.5,268.516791" id="Line"></path>
                    <path d="M238.5,0.5 L238.5,268.516791" id="Line"></path>
                    <path d="M208.5,0.5 L208.5,268.516791" id="Line"></path>
                    <path d="M178.5,0.5 L178.5,268.516791" id="Line"></path>
                    <path d="M148.5,0.5 L148.5,268.516791" id="Line"></path>
                    <path d="M119.5,0.5 L119.5,268.516791" id="Line"></path>
                    <path d="M89.5,0.5 L89.5,268.516791" id="Line"></path>
                    <path d="M59.5,0.5 L59.5,268.516791" id="Line"></path>
                    <path d="M29.5,0.5 L29.5,268.516791" id="Line"></path>
                    <path d="M0.5,0.5 L0.5,268.516791" id="Line"></path>
                </g>
                <text id="Images" font-family="Avenir-Heavy, Avenir" font-size="30" font-weight="600" fill="#FFFFFF">
                    <tspan x="85" y="30">Images</tspan>
                </text>
            </g>
            <g id="fragment-2" transform="translate(533.000000, 92.000000)">
                <polyline id="Path-4" stroke="#EAEAEA" stroke-width="4" points="0 275.935848 19.9189318 214.547332 45.2516031 308.104739 76.6573408 244.513059 93.1344651 340.833207 120.977418 195 134.14581 308.104739 146.140721 247.554236 164.577679 287.786976 196.467327 247.554236 213.265041 275.935848"></polyline>
                <text id="Audio" font-family="Avenir-Heavy, Avenir" font-size="30" font-weight="600" fill="#FFFFFF">
                    <tspan x="57" y="30">Audio</tspan>
                </text>
            </g>
            <g id="fragment-3" transform="translate(887.000000, 92.000000)">
                <path d="M19.5,266.5 L253.431614,266.5" id="Line-2" stroke="#EAEAEA" stroke-width="4"></path>
                <text id="Network" font-family="Avenir-Heavy, Avenir" font-size="30" font-weight="600" fill="#FFFFFF">
                    <tspan x="75" y="30">Network</tspan>
                </text>
                <rect id="Rectangle" stroke="#EAEAEA" stroke-width="4" x="0" y="247" width="38" height="38"></rect>
                <rect id="Rectangle" stroke="#EAEAEA" stroke-width="4" x="235" y="247" width="38" height="38"></rect>
            </g>
        </g>
    </g>
</svg>